<svg width="237" height="236" xmlns="http://www.w3.org/2000/svg" xml:space="preserve" version="1.1">

 <g>
  <title>Layer 1</title>
  <path id="svg_1" fill="#1A1A1A" d="m118.4,0.9c-64.7,0 -117.3,52.5 -117.3,117.3s52.5,117.3 117.3,117.3s117.3,-52.5 117.3,-117.3s-52.5,-117.3 -117.3,-117.3zm-3,231.1c-61.7,0 -111.8,-50 -111.8,-111.8s50,-111.8 111.8,-111.8s111.8,50 111.8,111.8s-50.1,111.8 -111.8,111.8z" class="st0"/>
  <path id="svg_2" fill="#1A1A1A" d="m115.4,218.9c55.6,0 100.8,-45.1 100.8,-100.8s-45.2,-100.7 -100.8,-100.7s-100.8,45.1 -100.8,100.8s45.1,100.7 100.8,100.7zm2.6,-198.5c53,0 96,43 96,96s-43,96 -96,96s-96,-43 -96,-96s43,-96 96,-96z" class="st0"/>
  <path id="svg_5" fill="#1A1A1A" d="m116.6,39.5l0,0c-0.9,0 -1.6,-0.7 -1.6,-1.6l0,-8.7c0,-0.9 0.7,-1.6 1.6,-1.6l0,0c0.9,0 1.6,0.7 1.6,1.6l0,8.7c0,0.9 -0.7,1.6 -1.6,1.6z" class="st0"/>
  <path id="svg_6" fill="#1A1A1A" d="m116.6,204.6l0,0c-0.9,0 -1.6,-0.7 -1.6,-1.6l0,-8.7c0,-0.9 0.7,-1.6 1.6,-1.6l0,0c0.9,0 1.6,0.7 1.6,1.6l0,8.7c0,0.9 -0.7,1.6 -1.6,1.6z" class="st0"/>
  <path id="svg_7" fill="#1A1A1A" d="m193.2,116.2l0,0c0,-0.9 0.7,-1.6 1.6,-1.6l8.7,0c0.9,0 1.6,0.7 1.6,1.6l0,0c0,0.9 -0.7,1.6 -1.6,1.6l-8.7,0c-0.9,0.1 -1.6,-0.7 -1.6,-1.6z" class="st0"/>
  <path id="svg_8" fill="#1A1A1A" d="m28,116.2l0,0c0,-0.9 0.7,-1.6 1.6,-1.6l8.7,0c0.9,0 1.6,0.7 1.6,1.6l0,0c0,0.9 -0.7,1.6 -1.6,1.6l-8.7,0c-0.8,0.1 -1.6,-0.7 -1.6,-1.6z" class="st0"/>
  <path id="svg_9" fill="#1A1A1A" d="m62.4,61.9l0,0c-0.6,0.6 -1.7,0.6 -2.3,0l-6.1,-6.2c-0.6,-0.6 -0.6,-1.7 0,-2.3l0,0c0.6,-0.6 1.7,-0.6 2.3,0l6.2,6.2c0.6,0.7 0.6,1.7 -0.1,2.3z" class="st0"/>
  <path id="svg_10" fill="#1A1A1A" d="m179.2,178.7l0,0c-0.6,0.6 -1.7,0.6 -2.3,0l-6.2,-6.2c-0.6,-0.6 -0.6,-1.7 0,-2.3l0,0c0.6,-0.6 1.7,-0.6 2.3,0l6.2,6.2c0.7,0.7 0.7,1.7 0,2.3z" class="st0"/>
  <path id="svg_11" fill="#1A1A1A" d="m170.9,62l0,0c-0.6,-0.6 -0.6,-1.7 0,-2.3l6.2,-6.2c0.6,-0.6 1.7,-0.6 2.3,0l0,0c0.6,0.6 0.6,1.7 0,2.3l-6.2,6.2c-0.7,0.7 -1.7,0.7 -2.3,0z" class="st0"/>
  <path id="svg_12" fill="#1A1A1A" d="m54.1,178.8l0,0c-0.6,-0.6 -0.6,-1.7 0,-2.3l6.2,-6.2c0.6,-0.6 1.7,-0.6 2.3,0l0,0c0.6,0.6 0.6,1.7 0,2.3l-6.2,6.2c-0.7,0.6 -1.7,0.6 -2.3,0z" class="st0"/>
 </g>
</svg>