<svg width="33" height="56" xmlns="http://www.w3.org/2000/svg" xml:space="preserve" version="1.1">

 <g>
  <title>Layer 1</title>
  <polygon id="svg_1" fill="#1A1A1A" points="33,7.3 14.8,44.2 13.6,43.6 " class="st0"/>
  <polygon id="svg_2" fill="#1A1A1A" points="2.3,38.3 14.1,44.6 15.6,41.2 " class="st0"/>
  <polygon id="svg_3" fill="#1A1A1A" points="25.7,10 12.2,43.1 9.3,41.7 " class="st0"/>
  <polygon id="svg_4" fill="#1A1A1A" points="0.2,37 18.5,0.1 21.2,1.4 " class="st0"/>
  <polygon id="svg_5" fill="#1A1A1A" points="8.6,31.5 23,2.4 25.7,3.7 " class="st0"/>
  <polygon id="svg_6" fill="#1A1A1A" points="33,7.3 18.5,0.1 16.9,3.2 " class="st0"/>
  <polygon id="svg_7" fill="#1A1A1A" points="14.8,44.2 0,55.6 0.2,37 0.7,52.8 " class="st0"/>
  <polygon id="svg_8" fill="#1A1A1A" points="3.8,45.7 0.4,45.9 4.8,43.6 7.2,49.7 " class="st0"/>
  <polyline id="svg_9" fill="#1A1A1A" points="13.6,43.6 0.7,52.8 14.8,44.2 " class="st0"/>
  <polygon id="svg_10" fill="#1A1A1A" points="0.7,52.8 1,37 15.6,11 0.2,37 " class="st0"/>
  <polygon id="svg_11" fill="#1A1A1A" points="20.7,3.7 31.7,7.4 15,41.1 33,7.3 " class="st0"/>
 </g>
</svg>